# xmcd
#
# Track frame offsets:
#	150
#	12512
#	23925
#	35457
#	49117
#	62627
#	75467
#	88745
#	100300
#	113385
#	128107
#	142552
#	155780
#	171520
#	187532
#	201435
#
# Disc length: 2801 seconds
#
# Revision: 0
# Processed by: cddbd v1.5.2PL0 Copyright (c) Steve Scherf et al.
# Submitted via: EasyCDDAExtractor 10.2.0.1
#
DISCID=ca0aef10
DTITLE=ZICO E ZECA - INTERPRETAM SEUS GRANDES SUCESSOS
DYEAR=1900
DGENRE=Sertanejo
TTITLE0=DONA JANDIRA
TTITLE1=DESPREZO
TTITLE2=NOVA IRRADIAÇÃO
TTITLE3=SAUDADE
TTITLE4=MINHA ROSA
TTITLE5=A ENXADA E A CANETA
TTITLE6=LEMBRANDO MEU BEM
TTITLE7=QUERER BEM
TTITLE8=CABELO DE TRANÇA
TTITLE9=CAPELINHA DO CHICO MINEIRO
TTITLE10=JURAMENTO
TTITLE11=CORAÇÃO EM FESTA
TTITLE12=PRACINHA
TTITLE13=FORÇA DO DESTINO
TTITLE14=FLOR DO CÉU
TTITLE15=ENGANO DO CARTEIRO
EXTD=
EXTT0=
EXTT1=
EXTT2=
EXTT3=
EXTT4=
EXTT5=
EXTT6=
EXTT7=
EXTT8=
EXTT9=
EXTT10=
EXTT11=
EXTT12=
EXTT13=
EXTT14=
EXTT15=
PLAYORDER=
